<svg xmlns="http://www.w3.org/2000/svg" version="1.1" xmlns:xlink="http://www.w3.org/1999/xlink"
    xmlns:svgjs="http://svgjs.dev/svgjs" width="1500" height="613" viewBox="0 0 1500 613">
    <g transform="matrix(1,0,0,1,-0.9090909090909918,-0.3702442450091894)"><svg viewBox="0 0 396 162"
            data-background-color="#282634" preserveAspectRatio="xMidYMid meet" height="613" width="1500"
            xmlns="http://www.w3.org/2000/svg" xmlns:xlink="http://www.w3.org/1999/xlink">
            <g id="tight-bounds" transform="matrix(1,0,0,1,0.2400000000000091,0.09784595055707257)"><svg
                    viewBox="0 0 395.52 161.80430809888585" height="161.80430809888585" width="395.52">
                    <g><svg viewBox="0 0 725.1169896434166 296.64" height="161.80430809888585" width="395.52">
                            <g>
                                <rect width="22.292751110399998" height="296.64" x="340.3104318555819" y="0"
                                    fill="#ff4057" opacity="1" stroke-width="0" stroke="transparent" fill-opacity="1"
                                    class="rect-yte-0" data-fill-palette-color="primary" rx="1%" id="yte-0"
                                    data-palette-color="#ff4057"></rect>
                            </g>
                            <g transform="matrix(1,0,0,1,420.9611701659819,24.72)"><svg
                                    viewBox="0 0 304.15581947743465 247.2" height="247.2" width="304.15581947743465">
                                    <g id="textblocktransform"><svg viewBox="0 0 304.15581947743465 247.2"
                                            height="247.2" width="304.15581947743465" id="textblock">
                                            <g><svg viewBox="0 0 304.15581947743465 247.2" height="247.2"
                                                    width="304.15581947743465">
                                                    <g transform="matrix(1,0,0,1,0,0)"><svg width="304.15581947743465"
                                                            viewBox="1.75 -31.03 38.85 31.580000000000002"
                                                            height="247.2" data-palette-color="#ff4057">
                                                            <path
                                                                d="M10.93 0.55L10.93 0.55Q7.98 0.55 5.78-0.09 3.58-0.73 2.13-1.48L2.13-1.48 1.75-5.23Q3.58-4.28 5.76-3.58 7.95-2.88 10.73-2.88L10.73-2.88Q13.55-2.88 14.98-3.78 16.4-4.67 16.4-6.45L16.4-6.45 16.4-6.73Q16.4-7.88 15.86-8.63 15.33-9.38 13.93-9.95 12.53-10.53 9.95-11.1L9.95-11.1Q6.88-11.78 5.1-12.69 3.33-13.6 2.56-14.95 1.8-16.3 1.8-18.25L1.8-18.25 1.8-18.48Q1.8-21.68 4.03-23.33 6.25-24.98 10.73-24.98L10.73-24.98Q13.6-24.98 15.71-24.33 17.82-23.68 19.18-22.88L19.18-22.88 19.55-19.45Q17.93-20.4 15.83-21.03 13.73-21.65 11.1-21.65L11.1-21.65Q9.2-21.65 8.03-21.26 6.85-20.88 6.33-20.16 5.8-19.45 5.8-18.45L5.8-18.45 5.8-18.25Q5.8-17.15 6.33-16.39 6.85-15.63 8.21-15.06 9.58-14.5 12-13.98L12-13.98Q15.13-13.35 16.96-12.48 18.8-11.6 19.6-10.26 20.4-8.93 20.4-6.83L20.4-6.83 20.4-6.4Q20.4-2.95 18-1.2 15.6 0.55 10.93 0.55ZM34.22 0.5L34.22 0.5Q31.4 0.5 29.67-0.35 27.95-1.2 27.17-2.93 26.4-4.65 26.4-7.23L26.4-7.23 26.4-22.63 30.4-22.63 30.4-7.7Q30.4-5.3 31.5-4.16 32.6-3.03 35.2-3.03L35.2-3.03Q36.67-3.03 38.03-3.35 39.4-3.68 40.6-4.28L40.6-4.28 40.22-0.8Q39.05-0.2 37.47 0.15 35.9 0.5 34.22 0.5ZM39.97-20.8L22.4-20.8 22.4-24.05 40.35-24.05 39.97-20.8ZM30.3-23.65L26.42-23.65 26.4-30.5 30.47-31.03 30.3-23.65Z"
                                                                opacity="1" transform="matrix(1,0,0,1,0,0)"
                                                                fill="#ff4057" class="wordmark-text-0"
                                                                data-fill-palette-color="primary" id="text-0"></path>
                                                        </svg></g>
                                                </svg></g>
                                        </svg></g>
                                </svg></g>
                            <g transform="matrix(1,0,0,1,0,60.29021821334517)"><svg
                                    viewBox="0 0 281.9524446555819 176.05956357330965" height="176.05956357330965"
                                    width="281.9524446555819">
                                    <g><svg xmlns="http://www.w3.org/2000/svg"
                                            xmlns:xlink="http://www.w3.org/1999/xlink" version="1.1" x="0" y="0"
                                            viewBox="-2.435429092741941e-7 18.78899975199379 100.00000121676717 62.443000248006214"
                                            enable-background="new 0 0 100 100" xml:space="preserve" id="icon-0"
                                            width="281.9524446555819" height="176.05956357330965" class="icon-icon-0"
                                            data-fill-palette-color="accent">
                                            <g fill="#dcdcdc" data-fill-palette-color="accent">
                                                <g fill="#dcdcdc" data-fill-palette-color="accent">
                                                    <path
                                                        d="M97.938 68.771H91.622V20.81A2.02 2.02 0 0 0 89.601 18.789H10.399A2.02 2.02 0 0 0 8.378 20.81V68.771H2.062A2.06 2.06 0 0 0 0 70.832V72.916C0 73.019 0.008 73.12 0.022 73.222 0.549 76.743 3.37 80.669 7.181 81.144 7.264 81.154 7.35 81.161 7.433 81.161L91.943 81.232H91.946C96.35 81.232 99.55 77.035 99.987 73.147 99.996 73.072 100 72.995 100 72.917V70.833A2.06 2.06 0 0 0 97.938 68.771M12.42 22.831H87.58V68.77H59.985C59.852 68.77 59.723 68.786 59.599 68.81H41.16A2 2 0 0 0 40.764 68.77H12.42zM91.948 77.107L7.586 77.036C6.125 76.775 4.562 74.876 4.152 72.893H39.238C39.94 74.139 41.255 74.978 42.757 74.978H57.99C59.492 74.978 60.806 74.139 61.51 72.893H95.86C95.538 74.926 93.854 77.107 91.948 77.107M38.84 37.498A2.083 2.083 0 0 0 35.893 37.498L27.204 46.187A2.085 2.085 0 0 0 27.204 49.135L35.893 57.823A2.08 2.08 0 0 0 38.841 57.823 2.083 2.083 0 0 0 38.841 54.876L31.625 47.661 38.841 40.445A2.084 2.084 0 0 0 38.84 37.498M59.361 57.823A2.08 2.08 0 0 0 62.309 57.823L70.997 49.135A2.085 2.085 0 0 0 70.997 46.187L62.309 37.498A2.083 2.083 0 1 0 59.362 40.445L66.577 47.661 59.362 54.876A2.083 2.083 0 0 0 59.361 57.823M41.793 62.275A2.085 2.085 0 0 0 44.59 61.343L57.096 36.332A2.083 2.083 0 0 0 56.163 33.536 2.087 2.087 0 0 0 53.366 34.468L40.861 59.479A2.083 2.083 0 0 0 41.793 62.275"
                                                        fill="#dcdcdc" data-fill-palette-color="accent"></path>
                                                </g>
                                            </g>
                                        </svg></g>
                                </svg></g>
                        </svg></g>
                    <defs></defs>
                </svg>
                <rect width="395.52" height="161.80430809888585" fill="none" stroke="none" visibility="hidden"></rect>
            </g>
        </svg></g>
</svg>